<svg width="617" height="734" viewBox="0 0 617 734" fill="none" xmlns="http://www.w3.org/2000/svg">
<g id="simple-bird-flying-silhouette-by-Vexels 1">
<g id="Group">
<path id="Vector" d="M221.111 130.628C226.315 138.229 231.689 145.652 237.217 152.928C242.756 160.194 248.443 167.3 254.239 174.314C260.084 181.283 266.019 188.105 272.347 194.746C264.605 190.609 257.577 184.785 251.019 178.472C244.434 172.155 238.333 165.172 232.66 157.741C227.294 150.641 222.307 143.118 217.923 135.1C218.052 155.376 219.672 178.475 221.44 197.934C224.136 199.949 226.837 201.953 229.564 203.916C237.215 209.477 244.927 214.929 252.565 220.6C254.483 222.004 256.383 223.451 258.287 224.905L261.138 227.108C262.053 227.801 262.942 228.546 263.878 229.199C267.573 231.901 271.385 234.383 275.345 236.494C279.298 238.63 283.401 240.376 287.641 241.744C291.893 243.051 296.275 243.908 300.843 244.362C296.423 245.798 291.723 246.171 287.071 245.77C282.41 245.378 277.811 244.101 273.371 242.348C268.934 240.562 264.705 238.128 260.7 235.3C259.687 234.611 258.725 233.833 257.735 233.102L254.943 230.904L249.316 226.521C241.791 220.664 234.338 214.584 227.115 208.105C225.375 206.518 223.645 204.913 221.935 203.275C223.4 218.645 224.875 231.134 225.618 237.164C232.654 240.105 239.664 243.115 246.658 246.166C254.487 249.514 262.24 253.077 270.038 256.505L293.34 267.046L339.844 288.342C342.697 289.639 345.555 290.923 348.408 292.217C350.388 284.859 353.275 277.91 356.341 271.167C359.803 263.707 363.648 256.514 367.827 249.593C371.834 243.003 376.147 236.652 380.848 230.676C358.437 205.778 255.613 92.5838 231.527 84.7801C221.931 81.671 218.461 100.41 217.975 125.889C219.014 127.476 220.055 129.057 221.111 130.628Z" fill="#272324" fill-opacity="0.08"/>
<path id="Vector_2" d="M533.732 290.521C531.479 289.314 529.309 287.768 527.288 285.817C525.294 283.848 523.431 281.402 522.202 278.31C521.593 276.779 521.143 275.095 520.971 273.365C520.856 272.488 520.866 271.666 520.858 270.734C520.916 269.348 521.193 268.472 521.46 267.656C522.566 264.511 524.014 262.256 525.533 259.971C527.076 257.742 528.733 255.672 530.54 253.774C531.406 252.908 532.283 252.03 533.206 251.223C527.594 244.798 495.959 210.184 460.986 204.401C422.405 198.022 385.177 235.503 385.177 235.503C385.177 235.503 384.917 235.211 384.44 234.678L372.813 253.779L360.417 274.189L349.09 292.527C361.53 298.169 373.98 303.778 386.537 309.237C370.161 305.312 354.105 299.728 338.241 293.645C330.285 290.666 322.439 287.328 314.566 284.08C306.725 280.731 298.929 277.247 291.132 273.77C283.384 270.148 275.623 266.564 267.912 262.839C260.226 259.042 252.51 255.337 244.885 251.369C237.561 247.633 230.268 243.82 223.008 239.91C205.856 233.459 122.851 202.755 113.753 209.186C107.064 213.915 118.594 253.265 138.855 298.011C141.047 298.777 143.245 299.521 145.45 300.231C153.436 302.711 161.468 305.003 169.586 306.881C177.688 308.832 185.834 310.59 194.025 312.083C202.197 313.705 210.411 315.085 218.64 316.401C226.86 317.816 235.116 318.961 243.361 320.307C259.861 322.868 276.425 325.351 292.853 329.007C276.156 328.337 259.515 327.422 242.868 325.905C234.54 325.224 226.234 324.202 217.919 323.178C209.614 322.06 201.323 320.722 193.047 319.2C184.789 317.552 176.542 315.75 168.36 313.537C160.196 311.247 152.051 308.77 144.079 305.601C143.366 305.323 142.657 305.017 141.945 304.731C151.821 325.887 163.503 347.905 176.025 367.793C176.603 368.713 177.19 369.612 177.779 370.502C180.462 370.512 183.147 370.479 185.836 370.406L202.158 370.088C204.896 370.082 207.637 370.088 210.455 370.23C213.421 370.434 216.006 370.745 218.685 371.062C224.023 371.626 229.352 371.865 234.677 371.959C240.002 371.949 245.335 371.758 250.7 371.272C261.437 370.43 272.342 368.939 283.335 369.06C278.041 370.817 272.74 372.312 267.414 373.737C262.09 375.169 256.722 376.421 251.268 377.408C240.363 379.37 229.066 379.553 218.093 377.996C215.356 377.672 212.552 377.027 210.085 376.785C207.47 376.524 204.767 376.383 202.063 376.257C196.648 375.977 191.189 375.684 185.728 375.292C184.076 375.141 182.423 374.984 180.769 374.817C221.725 431.653 284.77 423.825 278.909 426.894C272.817 430.084 251.157 483.514 251.157 483.514L55.4833 556.015C55.4833 556.015 14.423 563.659 29.1445 607.918C37.7496 633.789 66.2737 628.182 72.5644 626.599C76.0237 624.395 79.4844 622.193 82.9275 619.96C87.626 616.921 92.3255 613.877 96.9523 610.723C99.2782 609.167 101.566 607.549 103.83 605.924C104.928 605.086 106.11 604.287 107.137 603.421L108.694 602.136C108.965 601.889 109.227 601.626 109.494 601.366C108.568 600.699 107.672 599.969 106.854 599.099C104.449 596.545 102.516 592.863 102.205 588.615C101.927 584.09 103.641 580.053 106.387 577.35C107.771 576.002 109.539 574.986 111.511 574.732C113.493 574.478 115.492 575.103 117.112 576.306C118.751 577.512 119.918 579.25 120.689 581.061C121.466 582.883 121.895 584.819 122.013 586.78C122.129 588.727 121.894 590.773 121.319 592.629C120.776 594.408 120 596.045 119.102 597.502C119.1 597.505 119.098 597.508 119.096 597.511C120.601 597.65 122.16 597.644 123.765 597.506C126.26 597.314 128.881 596.784 131.463 596.291C132.762 596.072 134.049 595.78 135.33 595.45C136.612 595.129 137.903 594.846 139.18 594.495C144.279 593.046 149.357 591.432 154.317 589.356C174.193 581.145 192.507 567.673 208.048 550.138C194.878 570.265 176.546 585.838 156.2 595.321C151.095 597.657 145.872 599.663 140.548 601.244C139.216 601.629 137.869 601.946 136.529 602.299C135.191 602.661 133.846 602.984 132.488 603.234C129.779 603.787 127.107 604.371 124.243 604.639C121.402 604.935 118.386 604.926 115.352 604.137C114.862 604.014 114.364 603.826 113.867 603.653C113.525 603.971 113.184 604.296 112.84 604.601C108.267 608.573 103.455 611.443 98.7258 614.488C93.9728 617.489 89.1799 620.357 84.3843 623.223C80.8576 625.303 77.3153 627.342 73.7746 629.384C74.0737 635.016 76.5413 646.552 91.4164 649.386C120.327 654.894 282.293 524.981 282.293 524.981C321.551 525.779 413.605 485.906 459.632 451.614C503.702 418.781 539.699 305.546 542.681 293.873C539.627 293.188 536.63 292.087 533.732 290.521ZM495.256 265.66C493.34 263.441 491.633 261.801 489.904 260.588C488.184 259.376 486.537 258.696 484.953 258.495C483.556 258.311 481.861 258.67 480.221 259.617C478.603 260.598 476.946 261.932 475.882 264.866C475.087 263.548 474.878 261.74 475.135 260.024C475.398 258.298 476.12 256.668 477.107 255.317C479.081 252.638 482.225 250.919 485.594 251.324C488.774 251.695 491.555 253.822 493.244 256.503C494.941 259.194 495.779 262.512 495.256 265.66Z" fill="#272324" fill-opacity="0.08"/>
<path id="Vector_3" d="M534.587 252.406C533.981 253.586 533.407 254.779 532.825 255.971C531.678 258.346 530.544 260.708 529.496 263.069C528.459 265.386 527.416 267.853 526.898 269.888C526.774 270.367 526.744 270.841 526.763 270.834C526.81 271.277 526.815 271.839 526.922 272.319C527.077 273.315 527.322 274.299 527.735 275.246C529.288 279.092 532.583 282.531 536.159 285.584C538.762 287.825 541.584 289.867 544.459 292.045C553.245 289.08 596.428 282.781 597.036 277.767C597.678 272.474 540.491 254.271 534.587 252.406Z" fill="#272324" fill-opacity="0.08"/>
<path id="Vector_4" d="M114.261 581.749C112.905 580.844 111.418 581.073 110.06 582.49C108.725 583.859 107.913 586.19 108.081 588.006C108.255 590.104 109.285 592.218 110.861 593.855C111.648 594.672 112.553 595.373 113.518 595.923C113.7 596.027 113.897 596.099 114.083 596.192C114.502 595.594 114.895 594.985 115.239 594.355C115.862 593.208 116.343 592.017 116.649 590.796C116.936 589.657 117.013 588.493 116.882 587.291C116.667 584.927 115.619 582.599 114.261 581.749Z" fill="#272324" fill-opacity="0.08"/>
</g>
</g>
</svg>
